<svg width="60" height="60" viewBox="0 0 60 60" fill="none" xmlns="http://www.w3.org/2000/svg">
<path d="M26.0396 12.7798C27.5749 22.3723 29.5339 32.0659 30.2806 41.7726C30.3415 42.5645 30.2954 43.3722 30.2954 44.1665M25.2414 11.7156C25.2343 11.7473 25.2272 11.779 25.2202 11.8107M25.2202 11.8107C24.7533 13.9067 24.2505 15.995 23.8228 18.0993C23.4016 20.1714 22.2028 22.5302 23.1726 24.4092C23.486 25.0164 26.1613 23.2834 26.4826 23.1531C28.3729 22.3865 30.3215 21.9859 32.2605 21.4094C33.9414 20.9097 33.6601 20.1592 32.497 19.0303C30.0356 16.6413 27.5777 14.2866 25.2202 11.8107ZM25.2202 11.8107C24.6898 11.2538 24.1645 10.6906 23.6454 10.1196" stroke="black" stroke-width="3" stroke-linecap="round"/>
</svg>
