<svg width="60" height="60" viewBox="0 0 60 60" fill="none" xmlns="http://www.w3.org/2000/svg">
<path d="M13.9229 32.4629C24.3954 32.6549 34.8483 32.7289 45.3096 32.7289C46.8301 32.7289 48.2918 32.4629 49.8314 32.4629M12.8589 32.463C13.494 31.9957 14.1379 31.5332 14.7852 31.0713M14.7852 31.0713C17.2711 29.2969 19.8059 27.5293 22.0798 25.5177C22.3333 25.2935 22.408 24.9688 22.4345 25.3404C22.718 29.309 23.6709 33.2457 24.1782 37.1917C24.4859 39.5851 22.8702 37.453 21.607 36.5415C19.2583 34.8467 17.1905 32.6013 14.7852 31.0713ZM14.7852 31.0713C14.6758 31.0017 14.5657 30.9336 14.4548 30.8671" stroke="black" stroke-width="3" stroke-linecap="round"/>
</svg>
