<svg width="60" height="60" viewBox="0 0 60 60" fill="none" xmlns="http://www.w3.org/2000/svg">
<path d="M26.7185 6.66211C27.3773 14.5265 27.6392 22.4261 28.7282 30.2465C28.8013 30.7715 28.8884 31.3018 28.984 31.8361M28.984 31.8361C29.5419 34.9513 30.3902 38.1975 30.4423 41.2702C30.4651 42.6123 30.3865 43.9634 30.4571 45.3044C30.5135 46.3759 30.685 47.4374 30.7083 48.5111C30.7179 48.9507 30.9448 47.6638 31.0629 47.2402C32.2702 42.9122 34.4321 38.4621 34.4321 33.8817C34.4321 31.544 34.5756 31.6168 32.0382 31.7242C31.019 31.7673 30.0013 31.8073 28.984 31.8361ZM28.984 31.8361C26.9541 31.8936 24.9261 31.9068 22.8912 31.8129C21.5077 31.749 21.8902 32.4195 22.3444 33.6157C23.5031 36.6668 25.5668 39.2108 27.3687 41.8909C28.4539 43.5051 29.3369 45.2298 30.4423 46.8265" stroke="black" stroke-width="3" stroke-linecap="round"/>
</svg>
