<svg width="60" height="60" viewBox="0 0 60 60" fill="none" xmlns="http://www.w3.org/2000/svg">
<path d="M9.68165 41.3794C12.5195 38.8752 15.346 36.3598 18.1572 33.827M9.9334 41.8829C12.4108 41.3733 14.9289 40.7238 17.4485 40.433C18.0324 40.3657 18.3999 40.4614 18.9404 40.6055C19.5465 40.7672 20.06 40.9838 20.6094 41.2768C21.1886 41.5857 21.8268 41.8616 22.4555 42.0507C23.1395 42.2565 23.8723 42.2527 24.5721 42.3864C26.6507 42.7836 28.4449 41.4371 29.8868 40.1207C31.2409 38.8843 32.7912 37.8749 34.1851 36.6801M19.0802 33.4074C21.0067 33.4074 22.9413 33.5097 24.8658 33.4773C26.9545 33.4422 28.9746 33.2203 30.9497 34.0414C32.2749 34.5923 33.5712 35.088 35.0056 35.2815C35.4661 35.3436 35.9998 35.4039 36.4509 35.2535M37.8774 34.9179C40.2287 35.0347 42.5654 35.1696 44.9171 35.1696C45.4421 35.1696 45.9105 35.1343 46.4275 35.0204C47.042 34.8851 47.8666 34.9121 48.3996 34.5682C49.0571 34.144 49.456 32.945 49.6257 32.2279C50.0578 30.4014 50.2592 28.4464 50.3623 26.5776C50.405 25.8036 50.5425 24.7466 50.1851 24.0181C49.7954 23.2238 49.3162 22.5446 48.7399 21.8829C48.0932 21.1404 47.1077 20.6798 46.2504 20.2326C44.8365 19.4949 43.3755 19.132 41.8122 18.8433C37.4334 18.0347 33.0657 18.7698 28.7819 19.8177C25.4684 20.6281 22.552 22.7073 21.029 25.827C20.2505 27.4215 19.8624 29.2178 19.5558 30.9552C19.4911 31.3219 19.4159 31.6914 19.4159 32.0647M36.5661 18.5924C37.2786 18.7705 37.7497 20.0901 38.129 20.7876C38.3511 21.196 38.4472 21.5756 38.6325 22.0029C38.8809 22.5756 39.002 23.3955 39.2201 24.1589C39.4382 24.9223 39.5847 25.9243 39.5847 26.7069C39.5847 28.4063 39.0407 29.9057 38.6325 31.5611C38.4927 32.1282 37.8599 35.3269 37.8599 34.7429M35.7026 17.5333C35.7026 17.5822 35.7939 17.4974 35.7429 17.4629M35.7429 17.4629C35.7242 17.4502 35.6866 17.4443 35.6187 17.454C35.3792 17.4882 35.3229 17.7083 35.5721 17.5799C35.6464 17.5416 35.7022 17.502 35.7429 17.4629ZM35.7429 17.4629C36.0024 17.2128 35.6442 16.9788 35.5348 17.1976M9.09424 42.4703C10.1491 43.803 11.0523 45.3066 12.8891 45.3934C14.1931 45.455 15.029 45.004 16.1106 44.3165C16.9381 43.7904 17.8058 43.375 18.67 42.9179C18.999 42.7438 19.495 42.5639 19.6677 42.2186" stroke="black" stroke-width="3" stroke-linecap="round"/>
</svg>
