<svg width="60" height="60" viewBox="0 0 60 60" fill="none" xmlns="http://www.w3.org/2000/svg">
<path d="M2.32733 10.6352C3.58527 10.512 8.59222 10.0068 10.1913 9.89838C10.2646 9.89341 12.1321 9.69282 12.6142 10.0117C12.9596 10.2402 12.9796 10.755 13.1527 11.1311C13.6155 12.1367 13.6738 12.2983 14.2012 13.3415C16.0144 16.9281 17.7838 20.539 19.5147 24.1669C21.0102 27.3012 22.464 30.4305 24.1622 33.4619C24.919 34.8128 25.7364 36.1568 26.4293 37.5427M17.8849 16.8838C23.2787 16.8494 28.6725 16.8196 34.0663 16.7846C37.0894 16.7651 40.135 16.8095 43.1559 16.6217C44.949 16.5102 46.7209 16.3866 48.519 16.3737C51.0609 16.3555 53.6044 16.268 56.1421 16.1187M57.6727 16.2466C56.5185 22.0605 55.6302 27.942 54.3004 33.7174C54.0489 34.8094 53.8428 35.7953 53.7194 36.9055M24.6437 37.9251C31.6461 37.6586 34.0614 37.5593 40.7401 37.33C43.3325 37.241 46.0645 37.31 48.6607 37.0112C49.71 36.8904 50.6815 36.4815 51.7213 36.324C52.3478 36.229 53.0007 36.2486 53.5916 36.0122M25.7916 37.9253C25.3074 39.3182 24.9493 40.9192 24.1338 42.1619C23.7481 42.7497 23.3849 43.3796 23.0499 43.9827C22.7772 44.4735 24.1463 44.2881 24.7077 44.2803C28.3953 44.229 32.0847 43.8947 35.7597 43.6143C39.2778 43.3459 42.8085 43.3798 46.33 43.1609C49.3925 42.9705 52.4429 43.0288 55.5046 43.1538M26.3016 45.7039C26.2352 45.7074 26.1723 45.7126 26.1128 45.7195M26.1128 45.7195C25.1569 45.8301 25.0662 46.3773 25.1681 47.3192C25.3726 49.211 27.4601 50.1036 29.178 50.1672C30.2831 50.2082 31.124 49.1769 30.5878 48.1269L30.5851 48.1215C30.2277 47.4216 29.7144 46.4164 28.9158 46.1502C28.4038 45.9795 26.7782 45.4962 26.1128 45.7195ZM26.1128 45.7195C26.0333 45.7462 25.9676 45.7829 25.919 45.8314M53.0816 44.4288C52.6535 45.2852 52.5501 46.0698 52.5149 47.0218C52.5019 47.3722 52.3469 48.3818 52.7841 48.6088C53.5161 48.9889 54.8623 48.368 55.5259 48.1199C55.9872 47.9475 57.0134 47.6804 57.2899 47.1777C58.1564 45.6022 56.5293 44.3013 55.122 44.3013M21.631 24.2036C32.0932 24.0456 42.7245 24.2975 53.1455 23.146C53.727 23.0818 54.2383 22.8938 54.7737 23.108M23.822 32.1472C33.1846 31.7851 42.5425 31.3254 51.9126 31.3254C53.4201 31.3254 54.9189 31.0644 56.4168 30.9146M29.985 18.315C31.4654 23.3165 32.9826 28.3596 34.8317 33.2429C35.1675 34.1298 35.5916 34.98 35.9045 35.8754C35.9969 36.1399 36.0351 36.5418 36.2849 36.6667M41.6262 17.0826C43.4831 20.0318 45.0858 23.0993 46.6782 26.1976C47.9324 28.6378 49.334 31.0177 50.4368 33.5322C50.5885 33.878 50.8452 34.8396 51.2129 35.0234" stroke="black" stroke-width="3" stroke-linecap="round"/>
</svg>
