<svg width="60" height="60" viewBox="0 0 60 60" fill="none" xmlns="http://www.w3.org/2000/svg">
<path d="M32.682 9.15166C31.4746 8.3691 30.1002 8.0256 28.7158 7.67959L28.5994 7.6505C27.6714 7.41843 26.699 7.17526 25.7454 7.10076C24.5691 7.00887 23.3216 6.92219 22.1483 7.08466C20.215 7.35235 18.2645 8.04879 16.4896 8.82953C14.8706 9.54165 13.1907 10.4815 12.0495 11.8737C11.1972 12.9136 10.7068 14.2824 10.2617 15.5298C9.91599 16.4988 9.69534 17.4437 9.58525 18.4719C9.29538 21.1792 9.16176 23.9587 9.26312 26.6809C9.34037 28.7555 9.80121 30.8263 10.1866 32.8604C10.8449 36.3357 11.6226 40.1346 13.9125 42.9431C16.2941 45.8639 19.8002 47.1419 23.41 47.8287C25.0343 48.1378 26.6671 48.2429 28.3171 48.2851C30.3673 48.3374 32.4482 48.4633 34.4966 48.3227C36.7955 48.1648 38.8088 47.8847 40.6278 46.3899C42.5036 44.8484 43.7373 42.4233 45.1162 40.4627C46.1018 39.0612 47.0694 37.6534 47.7899 36.0925C48.4981 34.5578 48.9527 32.8926 49.4112 31.2712C49.7353 30.1254 49.9332 29.1449 49.8193 27.964C49.5918 25.6066 48.9864 23.2751 48.2408 21.0382M33.552 10.4077C32.054 10.9631 31.615 11.4477 31.3401 13.0975C31.2902 13.3968 31.3257 13.7138 31.4743 13.978C31.9045 14.7428 33.1418 14.2252 33.799 14.488C33.831 14.5008 33.2024 15.0115 33.1225 15.0893C32.4225 15.7714 31.9011 16.6766 31.6676 17.6288C31.4399 18.5568 31.364 19.4552 31.6353 20.3776C31.8864 21.2313 32.5959 21.2313 33.3616 21.2313H33.3695C33.8653 21.2313 34.0952 20.9615 34.2285 21.5105C34.5376 22.7834 35.0217 23.9994 35.3828 25.2633C35.7191 26.4402 36.5447 26.4782 37.6968 26.584C38.7262 26.6785 39.1717 26.6455 39.7584 25.8055C39.9362 25.551 40.049 25.1456 40.2738 24.9358C40.4598 24.7622 40.9973 25.3006 41.1328 25.3868C42.0396 25.9631 43.5323 26.2803 44.5098 25.6659C45.8659 24.8135 46.394 23.0932 46.9848 21.7145M21.9553 15.3365C22.5497 15.439 22.7836 15.26 22.8089 14.6386C22.8159 14.4688 22.8188 14.2127 22.6439 14.1883M22.6439 14.1883C22.6133 14.184 22.5774 14.1868 22.5351 14.1983C22.3162 14.258 22.3026 14.7065 22.4385 14.6386C22.6295 14.5431 22.6758 14.3367 22.6439 14.1883ZM22.6439 14.1883C22.6133 14.0461 22.5111 13.957 22.3955 14.0695C22.0926 14.3642 21.7078 14.8957 22.0519 15.2399M17.6064 27.8994H17.7031M29.3962 37.9501C29.4751 37.9458 29.5484 37.9428 29.6157 37.9371M29.6157 37.9371C29.8846 37.9148 30.0586 37.8521 30.121 37.5152C30.1708 37.2462 30.2027 37.0472 29.9169 36.9354C29.5513 36.7923 28.717 36.7205 29.0526 37.3917C29.1467 37.58 29.3574 37.7768 29.6157 37.9371ZM29.6157 37.9371C30.262 38.3384 31.2067 38.5121 31.3719 37.7568C31.4881 37.2258 30.9103 36.9834 30.7491 37.4669M27.9468 26.7397V26.6431M41.5728 33.4077V33.311M20.9887 38.2397C20.8997 38.2509 20.9247 38.2711 20.8921 38.3364" stroke="black" stroke-width="3" stroke-linecap="round"/>
</svg>
