<svg width="60" height="60" viewBox="0 0 60 60" fill="none" xmlns="http://www.w3.org/2000/svg">
<path d="M11.8417 26.8525C15.0879 25.0883 18.592 23.8909 21.7006 21.8925C25.1878 19.6507 29.3585 18.1094 33.0598 16.2588C35.3266 15.1254 38.3441 12.6072 40.9133 14.6054C41.8442 15.3294 42.8701 16.7395 43.4699 17.7591C44.1534 18.921 45.1823 19.9587 45.7356 21.2036C46.9082 23.842 48.51 26.4361 49.3025 29.2101C49.6929 30.5764 49.6157 31.6659 48.9045 32.9302C47.917 34.6858 45.7128 35.5612 44.1588 36.7268C43.1245 37.5025 41.906 38.3805 40.7755 38.9772C36.2699 41.3551 31.4554 42.7023 26.7525 44.6262C24.6248 45.4966 22.3332 46.1417 19.986 46.1417C15.3248 46.1417 13.478 39.893 11.9029 36.4053C10.9555 34.3074 10.4639 33.1416 10.4639 30.8482C10.4639 29.455 11.5731 27.6778 12.9439 27.4037M12.3928 32.9149C19.3049 28.0287 27.8837 26.4046 35.05 21.8925C35.4513 21.6398 41.0243 18.4145 41.051 18.448C41.5138 19.0264 42.152 19.3932 42.6432 20.0248C42.751 20.1634 40.9383 21.4833 40.6377 21.6169C35.0378 24.1057 29.4136 26.5748 23.8285 29.057C20.3003 30.6251 16.4076 31.8917 13.2195 34.0171M24.3245 36.2744C23.9245 36.7307 22.6655 37.9492 23.544 38.6926C24.3378 39.3643 25.0832 39.4858 26.1349 39.4858C27.4846 39.4858 28.0032 38.7639 28.4955 37.6562C29.1699 36.1388 26.5484 35.0078 25.476 35.0078M21.9063 36.735C20.146 37.0167 18.647 37.6218 19.2003 39.6138C19.4604 40.5501 19.6955 40.6747 20.6141 40.97C21.6939 41.3171 23.5698 41.8141 24.2093 40.535" stroke="black" stroke-width="3" stroke-linecap="round"/>
</svg>
