<svg width="60" height="60" viewBox="0 0 60 60" fill="none" xmlns="http://www.w3.org/2000/svg">
<path d="M16.814 35.3702C16.217 35.9445 16.1986 36.8941 16.7729 37.4911C17.3472 38.0882 18.2968 38.1066 18.8938 37.5322L16.814 35.3702ZM26.3109 28.7571L27.2789 29.9029L27.2789 29.9029L26.3109 28.7571ZM29.7012 25.9978L30.6998 27.117L29.7012 25.9978ZM38.0357 17.456L36.8644 16.519L36.8644 16.519L38.0357 17.456ZM43.1117 11.6077L44.3159 12.5022L44.3159 12.5022L43.1117 11.6077ZM44.7316 9.41346L43.5475 8.49255L43.5475 8.49255L44.7316 9.41346ZM45.4002 9.56414L46.6335 8.71033L46.6335 8.71033L45.4002 9.56414ZM47.0106 11.7396L47.9434 10.5649L47.9434 10.5649L47.0106 11.7396ZM48.96 13.7361L48.1739 15.0136L48.1739 15.0136L48.96 13.7361ZM49.0593 15.7631C49.4298 16.504 50.3308 16.8044 51.0717 16.4339C51.8127 16.0634 52.113 15.1624 51.7426 14.4214L49.0593 15.7631ZM22.0691 40.1165C21.472 40.6908 21.4535 41.6403 22.0277 42.2374C22.602 42.8345 23.5516 42.8531 24.1487 42.2788L22.0691 40.1165ZM30.5487 34.6431L31.4138 35.8685L31.4138 35.8685L30.5487 34.6431ZM34.1274 31.6106L33.2007 30.4311L33.2007 30.4311L34.1274 31.6106ZM37.3859 28.0696L36.2424 27.0988L36.2424 27.0988L37.3859 28.0696ZM40.6632 24.8394L41.6853 25.9372L41.6853 25.9372L40.6632 24.8394ZM47.0859 18.8216L48.1466 19.8822L48.1466 19.8822L47.0859 18.8216ZM51.4035 17.1192C51.774 16.3782 51.4737 15.4772 50.7327 15.1067C49.9917 14.7362 49.0907 15.0366 48.7203 15.7775L51.4035 17.1192ZM18.4222 38.6821C18.9989 38.0873 18.9843 37.1377 18.3896 36.561C17.7948 35.9843 16.8452 35.9989 16.2685 36.5936L18.4222 38.6821ZM15.8574 39.5025L14.53 38.8039L15.8574 39.5025ZM13.098 42.9305L11.9038 42.0229L13.098 42.9305ZM9.0485 49.8147L7.64401 49.288L7.64401 49.288L9.0485 49.8147ZM9.94317 49.6358L9.33422 48.2649L9.25023 48.3023L9.17142 48.3495L9.94317 49.6358ZM16.6673 46.1136L17.6302 47.2638L17.6302 47.2638L16.6673 46.1136ZM20.067 43.731L21.0273 44.8833L21.0273 44.8833L20.067 43.731ZM23.7797 42.7088C24.5207 42.3383 24.821 41.4373 24.4505 40.6964C24.08 39.9554 23.179 39.6551 22.4381 40.0255L23.7797 42.7088ZM15.5607 46.0607L16.6213 45L14.5 42.8787L13.4393 43.9393L15.5607 46.0607ZM10.9393 45.9393C10.3536 46.5251 10.3536 47.4749 10.9393 48.0607C11.5251 48.6464 12.4749 48.6464 13.0607 48.0607L10.9393 45.9393ZM19.4652 35.2769C18.8166 34.7615 17.873 34.8694 17.3576 35.518C16.8422 36.1666 16.9502 37.1102 17.5988 37.6256L19.4652 35.2769ZM21.4985 39.0787L22.8097 38.3503L22.8097 38.3502L21.4985 39.0787ZM21.76 41.1832C22.501 41.5537 23.402 41.2533 23.7725 40.5124C24.143 39.7714 23.8426 38.8704 23.1016 38.4999L21.76 41.1832ZM44.9808 11.8072C44.4772 11.1494 43.5357 11.0244 42.8779 11.528C42.2202 12.0316 42.0952 12.9731 42.5988 13.6309L44.9808 11.8072ZM46.5021 15.2241L45.6332 16.4469L45.6332 16.4469L46.5021 15.2241ZM46.2711 17.1109C46.7306 17.8002 47.6619 17.9865 48.3512 17.5269C49.0405 17.0674 49.2268 16.1361 48.7672 15.4468L46.2711 17.1109ZM18.8938 37.5322C21.6388 34.8917 24.3927 32.3412 27.2789 29.9029L25.3428 27.6113C22.3891 30.1067 19.5842 32.7053 16.814 35.3702L18.8938 37.5322ZM27.2789 29.9029C27.8107 29.4536 28.3597 29.0271 28.9439 28.5668C29.518 28.1146 30.1187 27.6354 30.6998 27.117L28.7026 24.8785C28.1959 25.3305 27.6583 25.7606 27.0875 26.2102C26.5269 26.6519 25.9245 27.1198 25.3428 27.6113L27.2789 29.9029ZM30.6998 27.117C33.6836 24.455 36.6482 21.5916 39.207 18.3931L36.8644 16.519C34.458 19.527 31.6353 22.262 28.7026 24.8785L30.6998 27.117ZM39.207 18.3931C39.9723 17.4365 40.8148 16.5362 41.7059 15.5676C42.5812 14.6159 43.4961 13.6058 44.3159 12.5022L41.9076 10.7133C41.1917 11.677 40.3739 12.5842 39.4979 13.5365C38.6376 14.4718 37.71 15.462 36.8644 16.519L39.207 18.3931ZM44.3159 12.5022C44.9015 11.7138 45.3675 11.039 45.9156 10.3344L43.5475 8.49255C42.9834 9.2178 42.4083 10.0393 41.9076 10.7133L44.3159 12.5022ZM45.9156 10.3344C45.9867 10.2429 46.0469 10.1636 46.0867 10.1115C46.1354 10.0477 46.1439 10.038 46.139 10.0437C46.135 10.0483 46.1083 10.0796 46.0645 10.1207C46.0278 10.1552 45.9252 10.2485 45.7656 10.3326C45.5965 10.4217 45.2914 10.5374 44.9024 10.4885C44.5032 10.4384 44.224 10.2415 44.0658 10.0884C43.9231 9.95026 43.846 9.81754 43.8204 9.77212C43.7898 9.71792 43.7726 9.67768 43.7721 9.67655C43.7707 9.67332 43.771 9.67384 43.7811 9.69837C43.789 9.71759 43.802 9.74921 43.8172 9.78481C43.8841 9.94065 43.99 10.1624 44.1669 10.418L46.6335 8.71033C46.604 8.66767 46.5891 8.63663 46.5743 8.60224C46.5692 8.59029 46.5642 8.57827 46.5559 8.55802C46.5498 8.54307 46.5356 8.5083 46.5207 8.47423C46.5067 8.44226 46.477 8.37562 46.4342 8.29973C46.3964 8.23263 46.3074 8.08294 46.1522 7.93276C45.9817 7.76771 45.6896 7.56384 45.2764 7.51192C44.8734 7.46129 44.5531 7.58049 44.3669 7.67859C44.0681 7.83608 43.8829 8.06601 43.8624 8.08986C43.7778 8.18849 43.6273 8.38997 43.5475 8.49255L45.9156 10.3344ZM44.1669 10.418C44.2698 10.5666 44.3699 10.7275 44.4861 10.9183C44.5958 11.0984 44.7282 11.3193 44.867 11.5325C45.1504 11.9674 45.5267 12.4766 46.0778 12.9143L47.9434 10.5649C47.7578 10.4175 47.5885 10.214 47.3806 9.8949C47.2739 9.73108 47.1743 9.56474 47.0485 9.35807C46.9291 9.16202 46.7902 8.93664 46.6335 8.71033L44.1669 10.418ZM46.0778 12.9143C46.2854 13.0792 46.4311 13.2736 46.7649 13.6933C47.0648 14.0703 47.4999 14.5989 48.1739 15.0136L49.7462 12.4586C49.5458 12.3353 49.3813 12.1635 49.1127 11.8257C48.8779 11.5306 48.4861 10.9958 47.9434 10.5649L46.0778 12.9143ZM48.1739 15.0136C48.2738 15.0751 48.5089 15.2501 48.7512 15.4698C48.8663 15.5742 48.9617 15.6694 49.0292 15.7451C49.1126 15.8387 49.0982 15.8408 49.0593 15.7631L51.7426 14.4214C51.5027 13.9418 51.0438 13.4989 50.7662 13.2472C50.4401 12.9516 50.0547 12.6485 49.7462 12.4586L48.1739 15.0136ZM24.1487 42.2788C26.592 39.929 28.8063 37.7091 31.4138 35.8685L29.6837 33.4176C26.8452 35.4213 24.4386 37.8377 22.0691 40.1165L24.1487 42.2788ZM31.4138 35.8685C32.1427 35.354 32.7853 34.786 33.3667 34.2606C33.9661 33.719 34.487 33.2357 35.0541 32.7901L33.2007 30.4311C32.5305 30.9577 31.9114 31.5323 31.3554 32.0347C30.7815 32.5533 30.2534 33.0155 29.6837 33.4176L31.4138 35.8685ZM35.0541 32.7901C36.3767 31.751 37.6667 30.0564 38.5293 29.0405L36.2424 27.0988C35.1852 28.3439 34.209 29.6389 33.2007 30.4311L35.0541 32.7901ZM38.5293 29.0405C39.4406 27.9672 40.5189 27.0232 41.6853 25.9372L39.6411 23.7416C38.5711 24.7377 37.3014 25.8516 36.2424 27.0988L38.5293 29.0405ZM41.6853 25.9372C43.7985 23.9698 46.0489 21.9799 48.1466 19.8822L46.0253 17.7609C43.9767 19.8095 41.8324 21.7014 39.6411 23.7416L41.6853 25.9372ZM48.1466 19.8822C48.3823 19.6465 48.779 19.423 49.5 18.9581C49.8081 18.7594 50.1629 18.5199 50.4834 18.2454C50.7968 17.9769 51.1598 17.6067 51.4035 17.1192L48.7203 15.7775C48.7298 15.7585 48.6999 15.8229 48.5318 15.9669C48.3708 16.1048 48.1554 16.2555 47.8743 16.4368C47.4172 16.7315 46.5601 17.2261 46.0253 17.7609L48.1466 19.8822ZM16.2685 36.5936C15.7911 37.0859 14.9828 37.9435 14.53 38.8039L17.1848 40.2011C17.4081 39.7767 17.9134 39.2068 18.4222 38.6821L16.2685 36.5936ZM14.53 38.8039C14.2714 39.2952 13.9084 39.7456 13.4374 40.2678C13.0022 40.7503 12.4015 41.368 11.9038 42.0229L14.2923 43.8381C14.6883 43.3171 15.1185 42.8832 15.6653 42.277C16.1762 41.7104 16.7461 41.0347 17.1848 40.2011L14.53 38.8039ZM11.9038 42.0229C10.3333 44.0893 8.62227 46.6793 7.64401 49.288L10.453 50.3414C11.2794 48.1377 12.7856 45.8205 14.2923 43.8381L11.9038 42.0229ZM7.64401 49.288C7.5935 49.4227 7.51953 49.6459 7.50331 49.9092C7.4888 50.1448 7.50488 50.7695 8.05735 51.2375C8.58413 51.6838 9.17199 51.6181 9.36092 51.5865C9.5927 51.5478 9.77904 51.4675 9.87601 51.4226C10.0815 51.3275 10.2821 51.1998 10.4004 51.1238C10.5603 51.0211 10.634 50.9706 10.7149 50.922L9.17142 48.3495C9.03888 48.4291 8.864 48.5451 8.77855 48.6C8.6516 48.6816 8.61017 48.7027 8.61531 48.7004C8.62271 48.6969 8.64539 48.6867 8.68048 48.6744C8.71331 48.663 8.77783 48.6424 8.86599 48.6276C8.98042 48.6085 9.50899 48.5355 9.99651 48.9485C10.5097 49.3832 10.5066 49.9488 10.4976 50.0936C10.487 50.2661 10.4435 50.3668 10.453 50.3414L7.64401 49.288ZM10.5521 51.0066C12.9544 49.9395 15.5131 49.0362 17.6302 47.2638L15.7044 44.9635C14.0082 46.3835 12.0456 47.0605 9.33422 48.2649L10.5521 51.0066ZM17.6302 47.2638C18.0667 46.8983 18.5685 46.5744 19.1697 46.1893C19.7422 45.8226 20.4118 45.3962 21.0273 44.8833L19.1067 42.5786C18.6601 42.9508 18.1523 43.2784 17.5517 43.6631C16.9797 44.0294 16.3127 44.4542 15.7044 44.9635L17.6302 47.2638ZM21.0273 44.8833C21.2674 44.6832 21.5208 44.4608 21.7639 44.248C22.0126 44.0303 22.2566 43.8173 22.5013 43.6136C23.0067 43.1928 23.4344 42.8815 23.7797 42.7088L22.4381 40.0255C21.7675 40.3608 21.1204 40.8597 20.5819 41.3079C20.3046 41.5387 20.0343 41.775 19.7878 41.9908C19.5356 42.2115 19.3128 42.407 19.1067 42.5786L21.0273 44.8833ZM13.4393 43.9393C13.2848 44.0939 12.8975 44.3894 12.35 44.8C11.8975 45.1394 11.2848 45.5939 10.9393 45.9393L13.0607 48.0607C13.2152 47.9061 13.6025 47.6106 14.15 47.2C14.6025 46.8606 15.2152 46.4061 15.5607 46.0607L13.4393 43.9393ZM17.5988 37.6256C17.8661 37.838 18.1624 38.049 18.4293 38.2394C18.708 38.4382 18.9669 38.6229 19.2128 38.8144C19.7253 39.2135 20.036 39.5349 20.1873 39.8072L22.8097 38.3502C22.3543 37.5304 21.644 36.9054 21.0561 36.4475C20.7518 36.2105 20.4406 35.989 20.1712 35.7969C19.89 35.5964 19.6602 35.4318 19.4652 35.2769L17.5988 37.6256ZM20.1873 39.8072C20.6467 40.6341 21.384 40.9952 21.76 41.1832L23.1016 38.4999C23.0136 38.4559 22.9505 38.4231 22.898 38.3932C22.847 38.3642 22.8179 38.3445 22.8016 38.3323C22.7784 38.3149 22.7953 38.3242 22.8097 38.3503L20.1873 39.8072ZM42.5988 13.6309C43.6152 14.9585 44.4422 15.6005 45.6332 16.4469L47.3709 14.0013C46.2863 13.2307 45.7344 12.7914 44.9808 11.8072L42.5988 13.6309ZM45.6332 16.4469C45.9012 16.6373 46.0802 16.8245 46.2711 17.1109L48.7672 15.4468C48.3867 14.876 47.9564 14.4174 47.3709 14.0013L45.6332 16.4469Z" fill="black"/>
</svg>
