<svg width="60" height="60" viewBox="0 0 60 60" fill="none" xmlns="http://www.w3.org/2000/svg">
<path d="M16.2517 26.4077C16.7165 23.6186 18.588 20.7897 19.8191 18.2659C21.0901 15.6605 23.5051 13.4823 26.1461 12.3119C28.3034 11.3558 30.8289 10.4617 32.933 11.8644C35.1238 13.3249 35.1876 16.2609 34.7975 18.6015C33.833 24.3884 30.6269 29.4904 27.7123 34.4624C26.3223 36.8336 24.9746 39.1055 23.2126 41.2369C21.8259 42.9143 20.4958 44.4794 19.496 46.4203C19.2364 46.9241 18.4759 47.8891 18.5886 48.5085C18.6618 48.9113 24.4476 47.7786 24.8036 47.713C28.0026 47.1237 31.0512 46.9921 34.3003 46.9921C36.1384 46.9921 38.1662 47.2189 39.9685 46.7683" stroke="black" stroke-width="3" stroke-linecap="round"/>
</svg>
