<svg width="60" height="60" viewBox="0 0 60 60" fill="none" xmlns="http://www.w3.org/2000/svg">
<path d="M28.5888 4.661C27.4164 4.661 26.2392 4.64129 25.0891 4.89588C23.9007 5.15897 22.3254 5.22782 21.472 6.19946C20.5408 7.25961 20.2369 8.81957 19.8983 10.1455C19.5673 11.4412 19.2994 12.665 19.2876 14.0092C19.2608 17.0617 19.7858 20.1601 22.7873 21.6781C24.0713 22.3275 25.6155 22.621 27.0504 22.6293C28.7802 22.6394 30.5776 22.7612 32.2999 22.5824C33.2252 22.4863 34.518 22.2501 35.2712 21.6546C36.2041 20.9169 37.0398 19.7935 37.5495 18.7186C38.5707 16.5653 37.2425 14.2316 36.2577 12.3651C34.4726 8.98171 31.2201 5.18831 27.2148 4.7667M48.5654 54.7609C48.9543 50.0029 49.0407 44.7492 46.2283 40.5977C44.3296 37.7947 41.5819 35.3436 38.7885 33.4456C36.1281 31.6379 32.9143 30.4998 29.775 29.8754C26.8872 29.301 24.1673 29.1958 21.3898 30.2864C18.6525 31.3613 16.7439 33.9667 15.6763 36.6458C14.9945 38.3566 14.697 40.2471 14.6135 42.0774C14.5335 43.8288 14.4266 45.6249 14.5959 47.3739C14.7219 48.6768 15.1997 49.9523 15.2946 51.2495C15.3622 52.1735 15.3768 53.0956 15.3768 54.0211M15.5884 54.021C20.8081 53.6276 26.028 53.1957 31.2549 52.9053L31.29 52.9033C31.7886 52.8756 32.2933 52.8476 32.7934 52.8583C35.8667 52.9244 38.905 53.4089 41.9654 53.6334C44.1711 53.7952 46.4556 53.8096 48.6713 53.8096" stroke="black" stroke-width="3" stroke-linecap="round"/>
</svg>
