<svg width="244" height="77" viewBox="0 0 244 77" fill="none" xmlns="http://www.w3.org/2000/svg">
<path d="M8.95269 24.112H13.2727V38.896H23.7367V24.112H28.1047V58H23.7367V43.216H13.2727V58H8.95269V24.112ZM32.7982 58L46.4782 21.808H46.5742L60.3022 58H55.8382L52.3342 48.256H40.7662L37.3102 58H32.7982ZM42.2542 44.128H50.8462L46.5262 32.128L42.2542 44.128ZM62.4232 58L74.6152 21.424H74.7112L86.6632 51.952L95.8792 24.112H99.9112L88.8712 58H84.4072L75.0952 33.424L66.8392 58H62.4232ZM104.625 58V24.064H109.041C118.593 24.112 125.889 31.456 125.889 41.008C125.889 50.608 118.593 57.952 109.041 58H104.625ZM109.041 53.584C116.049 53.536 121.473 48.112 121.473 41.008C121.473 33.952 116.049 28.528 109.041 28.432V53.584Z" fill="black"/>
<path d="M139.61 18.7234C139.918 22.3298 141.533 25.9618 142.221 29.5241C142.766 32.346 143.253 35.2494 144.01 38.0193C145.002 41.6521 145.454 45.3828 146.387 49.0663C146.642 50.077 146.788 53.4317 147.492 54.1132C148.207 54.8052 147.84 58.2111 148.293 59.3494M125.5 18.7378C131.269 18.8009 136.998 16.6957 142.593 15.4116C145.144 14.826 147.255 14.9852 149.955 15.1628M138.44 62C144.002 60.4877 149.518 60.1364 155.195 59.4369C157.7 59.1282 161.285 59.4456 163.362 57.9844M170.876 32.8224C168.611 32.9277 165.983 32.7348 164.518 34.8231C163.799 35.8468 163.148 36.8653 163.121 38.1893C163.045 41.9412 163.526 46.0437 164.874 49.5424C165.542 51.277 166.314 52.6387 167.637 53.9249C168.854 55.1073 170.808 54.9778 172.332 55.2587C173.484 55.471 175.065 55.6451 176.224 55.3698C177.269 55.1218 178.521 53.1194 179.166 52.2576M187.587 31.965C185.379 31.9168 182.316 32.8946 181.377 35.1724C180.919 36.2843 180.444 37.2404 180.099 38.4116C179.396 40.7993 180.247 43.6836 180.902 46.0015C182.048 50.0585 187.96 56.8968 192.43 54.6394C196.695 52.4856 199.394 46.927 198.284 41.9684C197.268 37.4335 192.139 28.8184 186.785 31.1075M202.027 30.8217C202.542 36.3234 204.825 41.7099 206.365 46.9542C207.032 49.2245 207.804 51.5821 208.653 53.782C208.818 54.2093 209.867 57.091 209.248 55.3381C207.719 51.0145 207.716 44.9356 208.445 40.4441C208.711 38.8069 209.744 33.4765 211.981 33.394C213.5 33.3381 215.21 33.275 216.527 34.2197C218.155 35.3873 219.196 37.671 220.42 39.2691C222.231 41.6357 221.937 44.6186 222.41 47.4623C222.521 48.1254 222.513 50.7723 223.153 51.1144M235.989 33.1082C234.28 32.8686 232.038 32.3027 230.492 33.394C229.579 34.0386 227.967 35.2695 227.967 36.6015C227.967 38.112 229.544 39.406 230.67 39.9995C233.171 41.3168 235.855 41.8089 238.128 43.6833C239.25 44.6081 240.75 46.0167 241.397 47.3988C241.895 48.4632 240.466 49.3599 239.792 49.9711C236.61 52.8567 231.787 54.5714 227.699 53.1151" stroke="black" stroke-width="3" stroke-linecap="round"/>
</svg>
